# xmcd
#
# Track frame offsets:
#	150
#	17681
#	37699
#	53317
#	65845
#	76719
#	94320
#	105182
#	126015
#	140911
#	152553
#	163136
#	185137
#	195670
#	212376
#	228279
#
# Disc length: 3398 seconds
#
# Revision: 2
# Processed by: cddbd v1.5.1PL0 Copyright (c) Steve Scherf et al.
# Submitted via: dBpowerAMP V4.0
#
DISCID=c70d4410
DTITLE=Various Artist - 100% Handmade Bluegrass
DYEAR=2003
DGENRE=Bluegrass
TTITLE0=Way Downtown - Jody Stecher
TTITLE1=Victim to the Tomb - Old and In The Gray
TTITLE2=Telluride - David Grisman Quintet
TTITLE3=Cabin of Love - Del McCoury Band and David Grisman
TTITLE4=How Mountain Girls Can Love - Ralph Stanley, David Grisman and the Clinch Mt. Boys
TTITLE5=Watson Blues - Doc Watson, David Grisman and the Nashville Bluegrass Band
TTITLE6=Love Please Come Home - Red Allen, Jim Buchanan, David Grisman, Herb Pedersen
TTITLE7=Dusty Miller - Ricky Skaggs, Sam Bush, David Grisman, etc.
TTITLE8='Tis Sweet to be Remembered - Red Allen and Frank Wakefield
TTITLE9=Honky Tonk Women - Old and In The Gray
TTITLE10=I Don't Want Your Mandolins Mister - Tony Rice and David Grisman
TTITLE11=Drifting Too Far from the Shore - Old and In The Way
TTITLE12=Dawggy Mt. Breakdown - David Grisman Quartet
TTITLE13=Is It Too Late Now- - Various Artists
TTITLE14=Orange Blossom Special - Old and In The Way
TTITLE15=Angel Band - Charles Sawtelle
EXTD=
EXTT0=
EXTT1=
EXTT2=
EXTT3=
EXTT4=
EXTT5=
EXTT6=
EXTT7=
EXTT8=
EXTT9=
EXTT10=
EXTT11=
EXTT12=
EXTT13=
EXTT14=
EXTT15=
PLAYORDER=
